<?xml version="1.0" encoding="UTF-8"?>
<svg id="Calque_2" data-name="Calque 2" xmlns="http://www.w3.org/2000/svg" viewBox="0 0 218.53 124.49">
  <defs>
    <style>
      .cls-1 {
        font-family: MasqualeroGroove-Regular, 'Masqualero Groove';
        font-size: 50.61px;
      }

      .cls-1, .cls-2 {
        fill: #f4b92f;
      }

      .cls-3 {
        opacity: .5;
      }
    </style>
  </defs>
  <g id="Calque_1-2" data-name="Calque 1">
    <ellipse class="cls-3" cx="109.26" cy="62.25" rx="109.26" ry="62.25"/>
    <text class="cls-1" transform="translate(9.99 77.1)"><tspan x="0" y="0">Orion </tspan></text>
    <g>
      <path class="cls-2" d="M88.63,93.74h.74c.49-.02,.84-.31,.84-.69v-9.24c-.02-.41-.18-.51-.94-.53h-.64v-.26h5.71c1.58,0,2.32,.15,3.21,.64,.81,.44,1.25,1.14,1.25,1.96,0,.59-.26,1.17-.67,1.53-.48,.41-.91,.61-2.03,.91,1.23,.21,1.79,.4,2.44,.86,.67,.48,1.1,1.33,1.1,2.21,0,1-.49,1.86-1.35,2.32-.81,.44-1.58,.56-3.64,.56h-6.03v-.26Zm4.81-5.8h1.3c.63,0,.89-.64,.89-2.11,0-1.12-.2-2.06-.49-2.32-.2-.18-.4-.23-.97-.23h-.72v4.66Zm.02,5.05c.02,.53,.18,.74,.59,.76h.87c.69,0,1.04-.69,1.04-2.06,0-1.56-.08-2.27-.35-2.82-.18-.4-.66-.67-1.12-.67h-1.04v4.79Z"/>
      <path class="cls-2" d="M100.06,93.74c1.12-.03,1.86-.91,2.62-3.11l2.44-7.61h2.47l3.28,9.68c.26,.91,.4,1.02,1.04,1.04h.48v.26h-6.39v-.26h.67c.49,0,.71-.15,.71-.46,0-.15-.03-.36-.1-.58l-1.05-3.26h-2.91l-.36,1.14c-.15,.51-.23,.95-.23,1.38,0,1.23,.56,1.78,1.83,1.78v.26h-4.48v-.26Zm6.09-4.53l-1.35-4.38-1.45,4.36,2.8,.02Z"/>
      <path class="cls-2" d="M112.73,93.74h.23c.69-.03,1.02-.31,1-.81l.02-9.07c.02-.36-.2-.54-.72-.58h-.49v-.26h5.3c1.75,0,2.47,.13,3.34,.61,.82,.46,1.33,1.22,1.33,2.04,0,.54-.26,1.14-.66,1.51-.46,.46-.94,.69-2.14,1.1,2.24,.56,2.8,1.2,2.75,3.18v1.17c0,.4,.1,.58,.31,.58,.43,0,.72-.81,.72-2.07l-.02-.66h.21c-.02,1.55-.02,1.75-.15,2.19-.26,.91-1.09,1.47-2.16,1.47-.72,0-1.43-.28-1.96-.77-.38-.35-.54-.94-.54-1.83,0-.12,0-.46,.02-.71,.03-.4,.05-.87,.05-1.02,0-.92-.31-1.37-.97-1.37h-.96v4.54c0,.4,.18,.68,.54,.76h.54v.26h-5.61v-.26Zm4.53-5.58h.74c1.17,0,1.48-.46,1.48-2.22,0-1.15-.08-1.66-.28-2.06-.21-.38-.61-.59-1.15-.59h-.79v4.87Z"/>
    </g>
  </g>
</svg>